<svg xmlns="http://www.w3.org/2000/svg" fill="none" viewBox="0 0 24 24" stroke="currentColor"><path strokeLinecap="round" strokeLinejoin="round" strokeWidth="2" d="M9 19c-5 1.5-5-2.5-7-3m14 6v-3.87a3.37 3.37 0 00-.94-2.61c3.14-.35 6.44-1.54 6.44-7A5.44 5.44 0 0020 4.77 5.07 5.07 0 0019.22 3c-.54 0-1.09.21-1.5.46-1.07-1.14-2.63-1.62-4.47-1.42A4.45 4.45 0 009.23 3.89C8.34 3.73 7.47 3.65 6.5 4a3.97 3.97 0 00-1.5 1.49L5 5.5l-.27.28c-1.12 1.25-1.72 2.76-1.72 4.47 0 5.41 3.3 6.61 6.44 7A3.37 3.37 0 0016 16.5V19"/></svg>
